<svg xmlns="http://www.w3.org/2000/svg" viewBox="0 0 500 687.1"><defs><style>.cls-1{fill:#e73523;}.cls-2{fill:#fff;}</style></defs><g id="Layer_2" data-name="Layer 2"><g id="Layer_1-2" data-name="Layer 1"><g id="Adobe"><g id="Adobe-2" data-name="Adobe"><g id="Group_125" data-name="Group 125"><path id="Path_239" data-name="Path 239" class="cls-1" d="M.44.12h185C124,147.61,62,295,.57,442.45c-.18-6-.12-12.07-.12-18.12Q.44,212.23.44.12Z"/><path id="Path_240" data-name="Path 240" class="cls-1" d="M315.28,0H500q-.06,221-.06,442Q407.87,220.93,315.29,0Z"/><path id="Path_241" data-name="Path 241" class="cls-1" d="M250,162.39Q309,302,367.82,441.69c-25.8-.11-51.59,0-77.38-.07-11.77-29.54-23.38-59.13-35.19-88.65H169q40.62-95.21,81-190.57Z"/><path id="Path_242" data-name="Path 242" class="cls-1" d="M170.44,519.16q14.4-.06,28.8,0c.24,49.83,0,99.66.12,149.49.07,3.15.32,6.34.53,9.51a77.44,77.44,0,0,1-45.78,8.18,43.9,43.9,0,0,1-30.43-17.74c-6.33-8.77-9.09-18.74-10.75-29.28-1.84-15.77-.89-31.39,5.79-46a53.08,53.08,0,0,1,23-25.21A58,58,0,0,1,170.4,562q-.08-21.4,0-42.86Z"/><path id="Path_243" data-name="Path 243" class="cls-1" d="M318.75,519.29c9.51-.32,19-.1,28.55-.14q.12,22.22,0,44.42c13.25-2.89,27-1.75,38.14,6.53,12.22,9,18.1,25.07,19.14,39.76.86,12.66.45,26.47-3.85,38.53a54.79,54.79,0,0,1-29.47,34.09,59.77,59.77,0,0,1-29.07,4.31,69.49,69.49,0,0,1-23.6-4.95c.19-54.17-.1-108.38.15-162.55Z"/><path id="Path_244" data-name="Path 244" class="cls-1" d="M33.47,529a13.49,13.49,0,0,1,5.49-.74q12.93.09,25.88,0c1.57.16,3.9-.28,5.19.74,2.71,7.6,4,15.84,6.17,23.61,9.31,37.91,18.73,76,28.08,114,1.26,6.34,3.63,12.16,4,18.67-9.05.13-18.13.2-27.18,0-2,.08-2.42-1.07-2.81-2.72-2.72-12.51-5.64-25-8.37-37.48-11.38-.16-22.74,0-34.1-.06-3.3,13.14-5.47,26.72-8.78,39.84-8.8,1.08-18.14.3-27,.32,1-6.36,2.39-12.55,3.94-18.79,9.48-40.71,18.86-81.52,28.41-122.2A122.62,122.62,0,0,0,33.47,529Z"/><path id="Path_245" data-name="Path 245" class="cls-2" d="M52.1,556.24c1.43,6.51,2.59,13,3.7,19.6,3,14.16,6,28.27,8.86,42.45H41.06c3-14.13,5.56-28.35,8.1-42.57A164.39,164.39,0,0,0,52.1,556.24Z"/><path id="Path_246" data-name="Path 246" class="cls-1" d="M254.59,562.41a43,43,0,0,1,20.81,2.74A39.48,39.48,0,0,1,295.18,584c6.5,12.5,8,26.09,8.22,40-.18,14.74-1.89,29.42-9.23,42.49A38.26,38.26,0,0,1,267,686.35c-9.67,1.45-21,.63-29.42-4.77-8.86-5.35-14.23-13.83-17.8-23.34a110.62,110.62,0,0,1-4.65-46c1.72-13,5-25.54,13.57-35.87a38.59,38.59,0,0,1,25.9-14Z"/><path id="Path_247" data-name="Path 247" class="cls-1" d="M477.09,565.46a36.11,36.11,0,0,1,18.52,21.41c5.23,13.15,4,29.39,2.64,43.23a99,99,0,0,1-18.6,1.36c-11.76.08-23.5,0-35.25.06.61,7.19.78,14.19,5,20.34a21.1,21.1,0,0,0,14.85,8.89c9.67,2,18.12-.62,27.32-3.18.09,8.07,0,16.16,0,24.23a32.25,32.25,0,0,1-9.7,3.82,83.81,83.81,0,0,1-28.13.34,41.31,41.31,0,0,1-27.56-18c-6.39-9.58-8.74-20.92-10-32.22a101.21,101.21,0,0,1,6.19-45.36c4.78-11.86,13.88-22.76,26.51-26.46a40.51,40.51,0,0,1,28.09,1.53Z"/><path id="Path_248" data-name="Path 248" class="cls-2" d="M170.32,588c.17,24,.05,48.09.06,72.13a31.93,31.93,0,0,1-11.85-.43,21.21,21.21,0,0,1-12.87-11.91c-4.45-9.13-4.44-20.86-3.85-30.81.63-9.78,4.6-21.77,13.71-26.78,4.71-2.9,9.52-2.5,14.8-2.2Z"/><path id="Path_249" data-name="Path 249" class="cls-2" d="M255.74,588.21A10.91,10.91,0,0,1,267.06,591c4.88,4.84,6,13.55,6.92,20.08,1,13,1.2,27.21-2.81,39.73a15.23,15.23,0,0,1-9.25,10.49c-4.92,1.63-10-1.44-12.61-5.56-4.35-7.16-5.09-15.35-5.69-23.53a110.44,110.44,0,0,1,1.95-29.92c1.67-5.67,4.2-11.82,10.18-14Z"/><path id="Path_250" data-name="Path 250" class="cls-2" d="M469,591.32c3.82,5.26,3.54,10.8,3.54,17-9.12.2-18.24,0-27.35.11.86-6.49,1.62-12.5,6-17.7,4.17-5.47,14.09-5.35,17.82.57Z"/><path id="Path_251" data-name="Path 251" class="cls-2" d="M347.51,589.33a22.4,22.4,0,0,1,16.79.77,20.72,20.72,0,0,1,10.09,13.59,65.1,65.1,0,0,1,1.74,23.87c-1.28,10.35-3.43,21-11.29,28.52a19.84,19.84,0,0,1-17.5,5c.12-23.86-.24-48,.16-71.78Z"/></g></g></g></g></g></svg>