<svg xmlns="http://www.w3.org/2000/svg" viewBox="0 0 499.41 58.06"><defs><style>.cls-1{fill-rule:evenodd;}</style></defs><g id="Layer_2" data-name="Layer 2"><g id="Layer_1-2" data-name="Layer 1"><g id="Amazon"><g id="Amazon-2" data-name="Amazon"><g id="Group_113" data-name="Group 113"><path id="Path_36" data-name="Path 36" class="cls-1" d="M186.41,11.15V3.85A1.86,1.86,0,0,1,188.3,2h33.19a1.86,1.86,0,0,1,1.92,1.78v6.39c0,1.06-.91,2.45-2.5,4.64l-17.17,24.4c6.37-.15,13.12.8,18.91,4a3.38,3.38,0,0,1,1.76,2.88v7.63c0,1.09-1.2,2.35-2.45,1.7a38.33,38.33,0,0,0-35.18.06c-1.16.62-2.37-.63-2.37-1.72V46.2a8.3,8.3,0,0,1,1.3-5L206.78,13H188.44a1.9,1.9,0,0,1-2-1.74v-.11Z"/><path id="Path_37" data-name="Path 37" class="cls-1" d="M66.54,57H56.32a2,2,0,0,1-1.91-1.69V3.85A2,2,0,0,1,56.48,2h10a2,2,0,0,1,2,1.73V10h.18C71,3.58,75.56.59,81.69.59s10.14,3,12.93,9.41A14.74,14.74,0,0,1,119.9,6.15c3.16,4.28,2.51,10.48,2.51,15.94V54.17A1.88,1.88,0,0,1,120.48,56H110.29s-1.78.11-1.88-.89V27.8c.08-2.16.27-7.59-.2-9.65-.75-3.47-3-4.44-5.91-4.44a6.66,6.66,0,0,0-6,4.23c-1,2.6-.94,6.94-.9,9.87V55.12a2,2,0,0,1-2,1.85v0h-10s-1.78-.88-2-1.88V27.81c.19-5.75,1.13-14.21-6-14.21s-6.94,8.24-7,14.21V55.12A1.79,1.79,0,0,1,66.55,57v0Z"/><path id="Path_38" data-name="Path 38" class="cls-1" d="M252.08.81c14.9,0,23,12.79,23,29.06,0,15.71-8.91,28.19-23,28.19-14.62,0-22.59-12.8-22.59-28.74S237.55.81,252.08.81Zm.09,10.52c-7.4,0-7.87,10.08-7.87,16.37s-.09,19.73,7.78,19.73,8.15-10.84,8.15-17.46c0-4.33-.19-9.54-1.5-13.66C257.61,12.74,255.36,11.33,252.17,11.33Z"/><path id="Path_39" data-name="Path 39" class="cls-1" d="M294.36,57H284.21a1.87,1.87,0,0,1-1.8-1.85l0-51.47A1.9,1.9,0,0,1,284.32,2h9.3a1.92,1.92,0,0,1,1.79,1.44V11h.18c2.8-6.93,6.7-10.24,13.59-10.24a13.12,13.12,0,0,1,11.63,6c2.6,4,2.6,10.87,2.6,15.78V54.4A1.89,1.89,0,0,1,321.5,56h-9.72s-1.66.25-1.37-.65v-28c-.42-5.64.24-13.88-6.7-13.88a6.59,6.59,0,0,0-5.81,4.12,21.42,21.42,0,0,0-1.49,9.76V55.12A2.08,2.08,0,0,1,294.36,57Z"/><path id="Path_40" data-name="Path 40" class="cls-1" d="M330.06,52.88a5,5,0,1,1,5.2,4.69H335A4.85,4.85,0,0,1,330.06,52.88Z"/><path id="Path_41" data-name="Path 41" d="M436.17,57a1.83,1.83,0,0,1-1.76-1.85V3.69A1.82,1.82,0,0,1,436.1,2h3.48a1.84,1.84,0,0,1,1.83,1.69v7.65C444.05,5.54,449,1,455.21,1H456c6.61,0,11.44,4.7,13.24,11.53C472,5.79,477.3,1,484.26,1H485a14.1,14.1,0,0,1,12.12,7.71c2.36,4.43,2.27,10.34,2.27,15.3V54.2a1.87,1.87,0,0,1-1.83,1.8h-4.39s-1.71.3-1.78-.61V24.13c-.08-3.68.11-7.59-1.39-10.95a9.05,9.05,0,0,0-7.59-5.73c-3.5.17-6.72,2.71-8.8,6.17-2.72,4.44-2.62,8.45-2.22,13.66V55.41A5.91,5.91,0,0,1,469.23,57h-5a1.87,1.87,0,0,1-1.84-1.85l0-33.06c0-3-.19-6.61-1.57-9.33a9.24,9.24,0,0,0-7.45-5.3c-3.1.18-6.25,2.59-8.11,5.41-2.39,3.58-2.85,8-2.85,12.58v29.7A1.87,1.87,0,0,1,440.64,57Z"/><path id="Path_42" data-name="Path 42" d="M406.16,58c-14.35,0-20.76-14.64-20.76-29.27C385.4,13.32,393,0,407.4,0h.76c14.07,0,21,14.2,21,28.83,0,15.52-7.74,29.17-22.28,29.17Zm1.25-7c4.68-.15,8.38-3.06,10.57-7.91,2-4.33,2.34-9.32,2.34-14.09,0-5.21-.56-10.63-3-15.07a12.15,12.15,0,0,0-9.93-6.5C403,7.6,399,10.6,397,15.24c-1.77,4-2.34,9.32-2.34,13.77,0,5,.66,10.73,2.72,15.07a11.9,11.9,0,0,0,10,6.94Z"/><path id="Path_43" data-name="Path 43" d="M361.67,50.18C368,50,371.24,45,372.61,38.44a1.91,1.91,0,0,1,1.8-1.44L379,37a1.83,1.83,0,0,1,1.86,1.77C378.87,50.21,372,58,362.09,58h-.56c-14.25,0-20.39-14.31-20.39-28.84S347.37,0,361.63,0h.49c10,0,17.18,7.73,18.74,19.27A1.9,1.9,0,0,1,379.11,21L374.29,21a2,2,0,0,1-1.64-1.79c-1-6.19-4.6-11.12-10.53-11.31C352.68,8.15,350,19.77,350,28.69,350,37.31,352.23,49.87,361.67,50.18Z"/><path id="Path_44" data-name="Path 44" class="cls-1" d="M160.4,32.37c0,3.91.1,7.17-1.88,10.64a8.14,8.14,0,0,1-6.94,4.57c-3.85,0-6.11-2.94-6.11-7.28,0-8.55,7.67-10.11,14.94-10.11Zm10.07,24.3a2.05,2.05,0,0,1-2.36.23,24.27,24.27,0,0,1-5.71-6.65c-5.48,5.58-9.36,7.25-16.46,7.25C137.54,57.5,131,52.32,131,42a17,17,0,0,1,10.63-16.31c5.42-2.37,13-2.8,18.77-3.45V20.9c0-2.38.18-5.19-1.22-7.24a6.67,6.67,0,0,0-5.6-2.59c-3.8,0-7.19,1.95-8,6a2.08,2.08,0,0,1-1.73,1.83l-9.67-1a1.76,1.76,0,0,1-1.51-2s0-.07,0-.11C134.9,4,145.5.48,155,.48c4.85,0,11.21,1.3,15,5,4.85,4.54,4.39,10.59,4.39,17.17V38.17c0,4.67,1.94,6.73,3.76,9.25a1.88,1.88,0,0,1,0,2.65c-2,1.71-5.66,4.85-7.65,6.62Z"/><path id="Path_45" data-name="Path 45" class="cls-1" d="M29.4,32.37c0,3.91.1,7.17-1.87,10.64a8.17,8.17,0,0,1-7,4.57c-3.85,0-6.1-2.94-6.1-7.28,0-8.55,7.66-10.11,14.93-10.11Zm10.07,24.3a2.09,2.09,0,0,1-2.36.23,24.62,24.62,0,0,1-5.72-6.65C25.91,55.83,22,57.5,14.94,57.5,6.54,57.5,0,52.32,0,42A17,17,0,0,1,10.65,25.64c5.41-2.37,13-2.8,18.76-3.45V20.9c0-2.38.18-5.19-1.22-7.24a6.69,6.69,0,0,0-5.6-2.59c-3.8,0-7.18,1.95-8,6a2.12,2.12,0,0,1-1.74,1.84l-9.67-1a1.76,1.76,0,0,1-1.51-2,.5.5,0,0,0,0-.12C3.91,4,14.5.49,24,.49c4.86,0,11.21,1.29,15,5C43.87,10,43.41,16,43.41,22.62V38.17c0,4.67,1.94,6.72,3.76,9.24a1.88,1.88,0,0,1,0,2.65c-2,1.71-5.66,4.86-7.65,6.63Z"/></g></g></g></g></g></svg>