<svg xmlns="http://www.w3.org/2000/svg" xmlns:xlink="http://www.w3.org/1999/xlink" viewBox="0 0 500 135.48"><defs><style>.cls-1{fill:#00aeef;}.cls-2{fill:url(#radial-gradient);}</style><radialGradient id="radial-gradient" cx="0.52" cy="908.73" r="1.16" gradientTransform="translate(-39.45 -107979.31) scale(118.69 118.7)" gradientUnits="userSpaceOnUse"><stop offset="0" stop-color="#20c4f4"/><stop offset="0.3" stop-color="#09b4f0"/><stop offset="0.5" stop-color="#00aeef"/><stop offset="0.8" stop-color="#0092c8"/><stop offset="1" stop-color="#006e98"/></radialGradient></defs><g id="Layer_2" data-name="Layer 2"><g id="Layer_1-2" data-name="Layer 1"><g id="Barclays"><g id="Barclays-2" data-name="Barclays"><g id="Group_2966" data-name="Group 2966"><path id="Path_1250" data-name="Path 1250" class="cls-1" d="M163,95.63H142.93c2.54-2.31,3.23-10.6,4.15-25.58l.23-3.46L148.23,47c0-3.92-.46-6.46-1.62-7.38h21.9c5.29,0,15.67.23,15.67,11.06,0,7.38-6.73,11.76-12.91,13.38,8.76.68,15.25,5.07,15.25,14.06.23,9.68-9,17.51-24,17.51m-.56-28h-4l-.68,8.28-.46,10.34c0,.46,1.61,1.61,5.28,1.61,7.82,0,12.87-3.9,12.87-10.34.23-7.13-6-9.85-13.1-9.85m1.61-21.44a24.24,24.24,0,0,0-3.9.23,94,94,0,0,0-1.15,11.95l-.23,3.22h1.38c7.12,0,13.55-2.53,13.55-9,.23-3.68-3-6.44-9.65-6.44m68.91,49c-4.83,0-5.28-.23-9-13.34L222.06,77c-2.3,1.15-6.43,1.61-12.87,1.61h-6.73l-1.14,2.51c-1.15,2.52-3.89,7.78-3.89,11a11.17,11.17,0,0,0,.23,2.51H184.45c3.64-3.64,8.64-12.51,15.24-26.56l3.86-8.19,7.28-17.06a7.78,7.78,0,0,0-.68-3.19h12.32l6,22.06,2.3,8.73c4.14,15,6.89,22.06,10.11,24.83l-8.5.46M214.89,52.09l-9.2,19.54H220.4l-5.52-19.54m70.34,45.67c-4.13,0-5.05-.68-6.43-2.53L262.93,73.62c-1.15-1.79-2.3-3-4.14-3h-.23L258.34,75l-.69,13.76c0,3.67.46,6,1.61,6.88H244c2.31-1.79,3-8.3,4.38-25.58l.23-3.46L249.57,47c0-3.92-.46-6.46-1.62-7.38h20.46c6.89,0,15.86,1.15,15.86,11.95,0,9-6,13.79-13.34,16.09a40.25,40.25,0,0,1,2.75,3.22l11.27,15c7.12,9.42,7.58,9.84,10.11,11a73.65,73.65,0,0,1-9.85.68M265,46.2a29,29,0,0,0-4.37.22c-.45,2.3-.68,6.44-1.15,13.11l-.22,3.9a9.25,9.25,0,0,0,2.52.23c6.89,0,11.73-4.37,11.73-10.57-.23-4.37-3.22-6.89-8.5-6.89m49.91,50c-14.48,0-22.75-11.95-22.75-25.06,0-18.35,10.11-32.87,29.19-32.87,6,0,8.73,1.15,13.79,1.15l-1.37,14.25c-2.76-5.06-7.36-8.28-13.34-8.28-11.95,0-16.78,12.87-16.78,23.91,0,11.94,6.89,18.61,15.63,18.61,4.83,0,9.19-1.15,16.31-6.21-3,8.74-9.65,14.48-20.68,14.48m98.37-1c-4.83,0-5-.23-9-13.34L402.94,77c-2.3,1.15-6.43,1.61-12.87,1.61h-6.75l-1.21,2.67C380.21,85.19,378,89.8,378,93c0,.72.24,1.7.24,2.67H338.81c2.3-2.53,3-10.83,4.15-25.58l.23-3.46L344.1,47c0-3.69-.46-6.23-1.38-7.38h15.4a125.12,125.12,0,0,0-3.91,25.1L354,68.18l-1.14,16.54c0,2.53.91,3.22,3.67,3.22,9.43,0,11.49-.22,15.86-3,2.76-4.84,5.52-10.81,8.5-17l3.91-8.28,7.36-17.24a10,10,0,0,0-.69-2.8h12.14l6,22,2.3,8.74c4.14,14.94,6.71,22.06,10.35,24.82a84,84,0,0,1-9,.69M395.79,52.09l-9,19.54H401.3l-5.51-19.54m52.42,12.35-3.92,7.38a77.61,77.61,0,0,0-1.15,15.67c0,2.53.45,6,1.61,7.14H429.49c2.77-2.53,3.69-18,3.69-23a136.85,136.85,0,0,0-9-22.12c-2.77-5.06-5.77-9.87-7.84-10.83l9.87-.45c3.68,0,4.84.45,7.14,5.53l7.84,18.89,9.87-15.89a12,12,0,0,0,1.61-4.85,6,6,0,0,0-.68-3.23h15c-3.23.69-16.13,21.2-18.9,25.81M498.63,52.3A15.07,15.07,0,0,0,485.76,45c-4.83,0-9,1.79-9,6.89,0,4.37,5.28,7.12,10.81,10.8,6,3.68,12.18,8.28,12.18,16.32,0,10.34-10.12,17-22.06,17a45.6,45.6,0,0,1-15.63-3l.91-13.8c2.75,5.52,7.82,9.84,15.4,9.84,5.75,0,10.35-2.75,10.35-7.81,0-4.14-3.45-6.9-7.82-9.43C471.73,66.26,466,61.94,466,53.85c0-12,9.84-15.86,20.45-15.86,6,0,9.85,1.15,13.56,1.15Z"/><path id="Path_1251" data-name="Path 1251" class="cls-2" d="M120.84,29.24a18.92,18.92,0,0,0-6.92-8.54,25.47,25.47,0,0,0-5.69-3.25,19,19,0,0,0-5.29-.82h-.65c-2.4,0-6.8.44-9.2,4-1.2,1.2-1.6,3.6-1.2,5.6a5,5,0,0,0,3.19,3.6,1.77,1.77,0,0,0,1.21.4,3.4,3.4,0,0,1-.44,1.2c-1.2,1.2-3.2,3.2-9.2,3.2H86.2c-3.26-.45-5.71-1.22-9.38-4.89-2-2.45-3.26-6.94-3.26-13.87a28.42,28.42,0,0,0-1.22-8.93,8.41,8.41,0,0,0-3.26-4.08A18.32,18.32,0,0,0,65,.82L58.07,0c-2.45,0-4.08.45-4.9,1.63H50.72c-1.22,0-2.86.45-4.08.45a12.83,12.83,0,0,0-5.7,2.86,9.31,9.31,0,0,0-2.45,3.67,19.79,19.79,0,0,0,.45,2.86l.44.44a6.59,6.59,0,0,1,4.49-1.22c2.86,0,6.93,1.22,7.75,3.26,2,3.26,1.22,5.71,1.22,8.57-1.22,7.74-4.08,11.42-10.2,12.24a9.22,9.22,0,0,1-3.26.44C34.9,35.2,31.63,34,30,31.12V30.5a1.87,1.87,0,0,0,.55-.45,5.79,5.79,0,0,0,3.27-3.67,7,7,0,0,0-1.23-5.72,13.25,13.25,0,0,0-9.39-4.09,23,23,0,0,0-5.72.82c-4.9,1.23-9.4,5.31-12.67,11.85A44.21,44.21,0,0,0,.32,46.4a108.91,108.91,0,0,0,0,16.75A53.79,53.79,0,0,0,4.41,81.49a82.94,82.94,0,0,0,7.34,14.73,22.51,22.51,0,0,0,2,3.26l.45-.44a5.45,5.45,0,0,0,1.22-1.64c1.64-1.22,4.5-5.31,5.32-6.53a31.21,31.21,0,0,0,2.86-5.31l.45-.82.82.45a4.68,4.68,0,0,1,1.22,3.26,18,18,0,0,1-1.22,4.91,59.69,59.69,0,0,1-4.09,9.39c.45.45.45,1.23,0,1.23a6.08,6.08,0,0,0-1.23,3.65H20A5.68,5.68,0,0,0,23.31,106c1.22-.82,4.49-3.67,8.58-9.39,3.26-4.09,5.31-8.58,7.76-13.48l.45-.82.82.44c.44.45.81.45,1.22.82a7.29,7.29,0,0,1,.45,3.27c-.45,3.27-2.45,7.76-3.68,11-2.45,5.72-6.95,11.85-10.21,16.34a1.93,1.93,0,0,1-1.23,1.23,5.57,5.57,0,0,0,1.63,1.22l1.23,1.23a83.27,83.27,0,0,0,13.89,9.4,91.83,91.83,0,0,0,18,8.17c5.72-1.23,13.89-5.72,18-8.17a83.19,83.19,0,0,0,13.88-9.4l1.23-1.23c.82-.44,1.23-1.22,1.63-1.22a2.88,2.88,0,0,0,.45-1.64l-.45-.44A80,80,0,0,1,86.7,97c-1.23-3.26-3.27-7.76-3.68-11a4,4,0,0,1,.45-3.26l.82-.82a2,2,0,0,1,1.22-.45l.45.82a105.41,105.41,0,0,0,7.77,13.48c4.08,5.72,7.35,8.58,8.57,9.4.84,1,3.27,1.46,3.27,1.46H106c.45-.44,0-1.22-1.22-3.25a1.48,1.48,0,0,1-.45-1.22,60.21,60.21,0,0,1-4.07-9.36,20,20,0,0,1-1.22-4.89,4.84,4.84,0,0,1,1.22-3.26l.82-.44.45.81a34.51,34.51,0,0,0,3.25,5.7c.81,1.22,4.07,4.89,4.88,6.11.82.81,1.23,1.22,1.23,1.62l.44.45A12.23,12.23,0,0,0,113,96.05l.44-.45A97.5,97.5,0,0,0,120.36,81c2-4.88,3.25-10.17,4.07-18.27a73.93,73.93,0,0,0,0-16.69,35.52,35.52,0,0,0-3.25-16.68Z"/></g></g></g></g></g></svg>