<svg xmlns="http://www.w3.org/2000/svg" viewBox="0 0 497.83 665.98"><defs><style>.cls-1{fill:#090;}.cls-2{fill:#9c0;}.cls-3{fill:#ff0;}.cls-4{fill:#fff;}</style></defs><g id="Layer_2" data-name="Layer 2"><g id="Layer_1-2" data-name="Layer 1"><g id="BP"><g id="BP-2" data-name="BP"><g id="Group_140" data-name="Group 140"><path id="Path_351" data-name="Path 351" class="cls-1" d="M395.87,49a34.13,34.13,0,0,0-15.29-14.23,44.63,44.63,0,0,0-24.12-2.87A28,28,0,0,0,335.19,45.6l-.66.16c.17-15.12-.06-30.33.11-45.46l-.33-.3C329,0,323.76,0,318.48,0a2,2,0,0,0-.23,1.56V105.45c-.12,4.92-.26,9.85-.44,14.76a2.88,2.88,0,0,0,.19,1.48c5.19-.11,10.37,0,15.56,0,.19-4.22.42-8.45.46-12.67,1,0,.94.92,1.48,1.53a30.69,30.69,0,0,0,19.84,11.94,39.62,39.62,0,0,0,32.92-9,38,38,0,0,0,11-17.71,81,81,0,0,0,1.7-31.12A45.46,45.46,0,0,0,395.87,49Zm-12.14,36.4a35.25,35.25,0,0,1-7.83,18.33,21.72,21.72,0,0,1-13.22,6.84A26.25,26.25,0,0,1,348,108.43a23.49,23.49,0,0,1-11.72-15.21,47.81,47.81,0,0,1-1.88-11.93A63.57,63.57,0,0,1,336,62.44a26.79,26.79,0,0,1,10.23-16.2,20.59,20.59,0,0,1,7.92-3.2,24.44,24.44,0,0,1,19,3.47,27.82,27.82,0,0,1,9.73,16.72,44.62,44.62,0,0,1,1.28,8.52A50.6,50.6,0,0,1,383.73,85.38Z"/><path id="Path_352" data-name="Path 352" class="cls-1" d="M491.3,49.17a33.38,33.38,0,0,0-16.22-14.36,38.79,38.79,0,0,0-26.72-.61,31.79,31.79,0,0,0-16.72,12.9,3.15,3.15,0,0,1-.67.74c0-5-.1-9.24-.3-14.16l-.38-.23c-5.28.16-10.83-.08-16.07.12,0,4.76.39,9.56.42,14.33-.05,35.68-.17,71.47-.21,107.14a3.66,3.66,0,0,0,1.57.23q6.54,0,13.08,0a3.69,3.69,0,0,0,1.58-.23c0-13.18,0-26.42,0-39.6a10.72,10.72,0,0,1,.23-3.39c5.6,8.75,15.87,12.82,26,12.84a38.17,38.17,0,0,0,27.65-10.17c7.85-7.47,11.55-17.67,12.84-28.22C498.59,74.12,497.64,60.17,491.3,49.17ZM479.5,87.06a42.5,42.5,0,0,1-2.11,9.1,25.17,25.17,0,0,1-8.46,12.57,23.6,23.6,0,0,1-13.74,4.17,25.22,25.22,0,0,1-13.39-3.29,23.75,23.75,0,0,1-10.19-15.16,70.16,70.16,0,0,1-.49-27.84c1.37-6.51,4.09-13.2,9.53-17.36a22,22,0,0,1,11.63-4.55,23.81,23.81,0,0,1,19.32,5,28,28,0,0,1,7.72,15.26,64.94,64.94,0,0,1,.18,22.12Z"/></g><path id="Path_353" data-name="Path 353" class="cls-1" d="M248.61,161.57l.34,0a284.35,284.35,0,0,1,30.64,51c1,2.26,2.67,5.69,3.36,7.84l-.7.59a213.84,213.84,0,0,0-32.42,45.48c-.34.45-.57,1.58-1.23,1.55l-.46-.62a218.47,218.47,0,0,0-32.94-46c-.35-.41-.69-.49-1-.23a223.19,223.19,0,0,0-14.51,51.43,18.4,18.4,0,0,1-.6,3.9,1,1,0,0,1-1.05-.44A212.9,212.9,0,0,0,163.57,251c-4.24-2.57-8.7-4.74-13-7.26.66-8.59,1.07-15.17,2.35-23.84a296.21,296.21,0,0,1,9.29-42.78l.56-.25a271.22,271.22,0,0,1,51.17,43c.27.39.58.53.92.41,2-5.07,4.37-10,6.72-14.89A274.4,274.4,0,0,1,248.61,161.57Z"/><path id="Path_354" data-name="Path 354" class="cls-1" d="M335.21,176.46A283.5,283.5,0,0,1,347,243.59c.9,0,1.7-.72,2.52-1.08A275.11,275.11,0,0,1,411,220.45a5.45,5.45,0,0,1,0,1.71,265.34,265.34,0,0,1-11.75,65.39,221.16,221.16,0,0,0-54.06,13.67c-.84.23-1.74,1-2.55.57l-.09-.71a176.47,176.47,0,0,0,3.56-24.52,189,189,0,0,0,.83-30c-.18-.75.25-2.5-.72-2.67a221.12,221.12,0,0,0-46.55,32.22,1.3,1.3,0,0,1-1.08.53,223.89,223.89,0,0,0-15.77-56A285.51,285.51,0,0,1,335.21,176.46Z"/><path id="Path_355" data-name="Path 355" class="cls-1" d="M86.32,220.61a23.72,23.72,0,0,1,4.8.95,278.32,278.32,0,0,1,59.1,22.12,220,220,0,0,0,.52,30.7c.25,2,.24,4,.4,5.95,1,5.17,1.33,10.45,2.45,15.61q.67,3.09,1,6.24a5.22,5.22,0,0,1-2.23-.56A211.68,211.68,0,0,0,111.47,290c-4.38-.64-9-1.66-13.43-1.89A229.07,229.07,0,0,0,119.22,336c1,1.76,2.23,3.42,3.11,5.25-4.91.15-9.84-.07-14.75.1-3.75.43-7.6.11-11.34.67a244.16,244.16,0,0,0-31.93,5l-.18.64A223,223,0,0,0,104,388.06a1,1,0,0,1,.59.85,227.12,227.12,0,0,0-51.24,24.28c-.57.38-1.43,1-.46,1.55a231.57,231.57,0,0,0,51.68,24.33c.11.59-.89,1-1.24,1.38a225.18,225.18,0,0,0-39.12,40V481a6.64,6.64,0,0,0,2.37.79,261.27,261.27,0,0,0,29,4.48c6.06.21,12.1.68,18.17.56,2.63,0,5.28-.23,7.9-.08A13.11,13.11,0,0,1,120,490a212.13,212.13,0,0,0-22.18,50.18c-3.75.06-6.4.74-10.09.83a270.29,270.29,0,0,1-34.62.87c-6.34-.23-11.9-.82-17.86-1.19-1.33-.56-3.64-.12-4.79-.77a5.4,5.4,0,0,1,.81-2.43A306.71,306.71,0,0,1,52.49,498c3.67-5.61,7.43-11.36,11.64-16.58-.33-.94-1.24-.75-2-1A276.62,276.62,0,0,1,.89,458.26c-.83-.16-.41-1.2.12-1.49a275.59,275.59,0,0,1,51-42.74,2.42,2.42,0,0,0-1.25-1.15A267.9,267.9,0,0,1,.92,371.35c-.36-.45-.92-.68-.92-1.27A279.93,279.93,0,0,1,63.43,347l.47-.49a270.43,270.43,0,0,1-33.3-57.09,3.88,3.88,0,0,1-.62-1.77c8.29-.8,15.15-1.61,23.7-1.82a9.41,9.41,0,0,0,2.8-.21c5.33-.14,10.62-.08,15.93,0l1,.23a223.26,223.26,0,0,1,24.78,1.86v-.78c-1.22-3.3-2.1-6.87-3-10.27a291.61,291.61,0,0,1-8.87-56Z"/><path id="Path_356" data-name="Path 356" class="cls-2" d="M214,221.07c.32-.26.65-.18,1,.23a218.27,218.27,0,0,1,32.94,46l.47.62c.65,0,.88-1.11,1.22-1.56A213.53,213.53,0,0,1,282,220.89l.59-.42a223.93,223.93,0,0,1,15.77,56,1.31,1.31,0,0,0,1.07-.52A220.85,220.85,0,0,1,346,243.7c1,.17.53,1.92.72,2.68a191.33,191.33,0,0,1-.83,30,179.29,179.29,0,0,1-3.56,24.52l.08.71c.82.44,1.72-.34,2.56-.56a221.22,221.22,0,0,1,54-13.68l-.09.25A218.37,218.37,0,0,1,375.25,340l.08.67.69.14a233.29,233.29,0,0,1,29.08.79,227.6,227.6,0,0,1,27.68,4.71l.17.46A242.43,242.43,0,0,1,405,377.48c-4.08,3.79-8.45,7.25-12.74,10.8a6.5,6.5,0,0,0,2.25.91,231,231,0,0,1,49.57,23.6.88.88,0,0,1,.59.92,232.31,232.31,0,0,1-49.3,23.94,10.33,10.33,0,0,0-3,1.18,44.56,44.56,0,0,0,3.81,3.18A224.51,224.51,0,0,1,433,480.22l-.2.41a247.46,247.46,0,0,1-31.21,4.95c-2.5,0-4.88.66-7.38.56-4.73.14-9.46.32-14.19.39a24.57,24.57,0,0,0-5.62.13,229.47,229.47,0,0,1,22.84,48.55,32,32,0,0,1,1.41,4.49c-2.12,0-4-.65-6.13-.78a219,219,0,0,1-48.26-12.75,5.66,5.66,0,0,0-2.16-.59c.35,3.84,1.51,7.57,1.94,11.41.56,3.21.71,6.36,1.42,9.56a237.48,237.48,0,0,1,1,37,6.24,6.24,0,0,1-1.9-.8,218.22,218.22,0,0,1-46.44-32c-.65.69-.54,2.35-.72,3.28a226.25,226.25,0,0,1-8,33.66,171,171,0,0,1-7.06,19.11l-.42,0a217.17,217.17,0,0,1-33.26-46.18c-.21-.54-.5-.79-.88-.78a236.74,236.74,0,0,1-32.44,45.9c-.43.4-.84,1.16-1.51,1.11a221.53,221.53,0,0,1-12.42-39.38c-1.4-5.5-1.95-11.2-3.15-16.72a232.16,232.16,0,0,1-47.89,32.92l-.46.25A232.27,232.27,0,0,1,153.1,533a76.44,76.44,0,0,0,1.39-7.81A218,218,0,0,1,98.22,540h-.43A211.9,211.9,0,0,1,120,489.8a13.23,13.23,0,0,0,1.75-3.22c-2.63-.15-5.27.1-7.9.07-6.07.12-12.11-.35-18.17-.55a261.3,261.3,0,0,1-29-4.49,6.45,6.45,0,0,1-2.37-.79v-.55a225.18,225.18,0,0,1,39.12-40c.35-.39,1.35-.79,1.24-1.38a231.5,231.5,0,0,1-51.68-24.31c-1-.56-.11-1.17.46-1.55a227.05,227.05,0,0,1,51.23-24.28,1,1,0,0,0-.59-.85,222.64,222.64,0,0,1-39.89-40.5l.17-.63a242.48,242.48,0,0,1,31.93-5c3.73-.57,7.59-.25,11.35-.67,4.91-.18,9.84.05,14.74-.11-.88-1.82-2.11-3.48-3.11-5.25A229,229,0,0,1,98,288c4.44.23,9,1.24,13.43,1.89a211.65,211.65,0,0,1,40.94,11.59,5.08,5.08,0,0,0,2.23.56,60.18,60.18,0,0,0-1-6.24c-1.12-5.15-1.5-10.43-2.44-15.61-.16-2-.16-4-.41-5.94a220.15,220.15,0,0,1-.52-30.71l.14.07c4.26,2.52,8.72,4.69,13,7.26A212.9,212.9,0,0,1,197.79,276a1.08,1.08,0,0,0,1.05.43,18.31,18.31,0,0,0,.6-3.9A223.16,223.16,0,0,1,214,221.07Z"/><path id="Path_357" data-name="Path 357" class="cls-3" d="M249.16,269a6.57,6.57,0,0,1,1.4,2.23A172.4,172.4,0,0,1,266,316.62c.47.88,1.1-.49,1.38-.86a172.13,172.13,0,0,1,30-36.93c.5-.42,1-1,1.65-1.06a165.69,165.69,0,0,1,.46,43.65c0,2.53-1,4.79-.87,7.34a11.28,11.28,0,0,0,2.59-1.84,170.47,170.47,0,0,1,40.48-23.87l.63.13c.39,1.05-.31,2.44-.5,3.53a163.49,163.49,0,0,1-16.11,41.88,5.81,5.81,0,0,0-.92,2.19,154.32,154.32,0,0,1,15.48-4.72,184.15,184.15,0,0,1,25.33-4.44,71.67,71.67,0,0,1,9-.33l0,.53a164.22,164.22,0,0,1-30.47,36,11,11,0,0,0-2.36,2.4,195.58,195.58,0,0,1,31.93,3.4c4.68,1.16,9.39,2,14,3.45a15.16,15.16,0,0,1,4.38,1.65,176.3,176.3,0,0,1-43.36,24.37c-.59.17-.89.44-.88.84a18.08,18.08,0,0,0,3.19,1.38,166.16,166.16,0,0,1,38.18,21.39,9.78,9.78,0,0,1,2.8,2.52,191.62,191.62,0,0,1-28.27,6.48c-5.14.54-10.08,1.43-15.33,1.49-2.24.15-4.53,0-6.75.28a1.78,1.78,0,0,0,.64.95,176,176,0,0,1,31.46,36.08c.28.53,1,1.25.5,1.85a142,142,0,0,1-26.95-3.21,161.51,161.51,0,0,1-22.16-5.9l-.5.22a6.9,6.9,0,0,0,.84,1.93,164.13,164.13,0,0,1,15.67,40.1,29.84,29.84,0,0,1,1,5.15l-.55.17A171.24,171.24,0,0,1,301,501.13c-.93-.62-1.83-1.83-2.94-2,.09,2.09.58,4.14.81,6.23.7,3.33.55,6.7,1,10.06a180,180,0,0,1-1.11,33.94,3.57,3.57,0,0,1-.54.69,175.9,175.9,0,0,1-30.72-37,19.33,19.33,0,0,0-1.69-2.51,52.06,52.06,0,0,0-1.26,5.53A173.47,173.47,0,0,1,249,558.49l-.37.07a21.62,21.62,0,0,1-1.79-3.27,171.28,171.28,0,0,1-11.3-29c-1.71-5-2.25-10.3-3.93-15.24l-.45.07a170.5,170.5,0,0,1-30.56,37.55,8.32,8.32,0,0,1-1.75,1.38,182.28,182.28,0,0,1-1.13-36.25c0-3,.6-6.05.9-9.08a31.92,31.92,0,0,0,.64-5.6,8,8,0,0,0-2.33,1.61,172.47,172.47,0,0,1-39.08,23.39c-.75.23-1.87,1.22-2.62.67a171.49,171.49,0,0,1,16.32-44.32,10.17,10.17,0,0,0,1.52-3.37,167.22,167.22,0,0,1-27.14,6.93c-3.34.85-6.8.86-10.19,1.57a88.24,88.24,0,0,1-13,.72c1.49-1.83,2.66-3.86,4-5.78A167.4,167.4,0,0,1,154.85,449c.42-.45,1.24-.89,1.23-1.56a59.33,59.33,0,0,0-6.25-.33c-3.4-.25-6.81-.6-10.2-.95-4.66-.33-9.12-1.4-13.74-2-3.51-.95-7.11-1.33-10.57-2.5-3.06-.69-6-1.65-9-2.41a1.08,1.08,0,0,1,.44-.87,176.49,176.49,0,0,1,43-24c.51-.17.69-.44.57-.81a165.36,165.36,0,0,1-43.56-24.08,1,1,0,0,1-.46-.88c2.93-.95,6-1.72,8.94-2.49,3.11-1.09,6.39-1.37,9.55-2.35a186.64,186.64,0,0,1,18.83-2.66c4.31-.59,8.67-.34,13-.73a5,5,0,0,0-1.24-1.43,181.64,181.64,0,0,1-32-37.5A80.48,80.48,0,0,1,134,342a166.53,166.53,0,0,1,30.18,5.8c3.27.67,6.3,2.07,9.51,2.91a16.86,16.86,0,0,0-1.95-4A164.06,164.06,0,0,1,156,303.82l.07-.63.61-.2a163.08,163.08,0,0,1,40.77,23.66c.74.51,1.51,1.47,2.42,1.56.42-1.18-.2-2.72-.23-4a171.07,171.07,0,0,1-1.58-27.8,120,120,0,0,1,1.72-18.73,1.72,1.72,0,0,1,1.2.56,170.46,170.46,0,0,1,30.65,37.47,6.24,6.24,0,0,1,.46,1.1,143,143,0,0,0-2.27,31.26c.5,3.17.19,6.47.81,9.64.18,2.45.79,4.91.88,7.37a2.16,2.16,0,0,1-.67-.83,140.89,140.89,0,0,0-28.48-34c-.59-.49-1.21-1.29-2-1.42a11,11,0,0,0,.49,3.37,136.11,136.11,0,0,0,14.58,40,5.2,5.2,0,0,1,.75,1.82,140.22,140.22,0,0,0-38.48-22.6,10.13,10.13,0,0,0-3.34-1,141.13,141.13,0,0,0,31,37.26,145.77,145.77,0,0,0-31.07-7.14c-2.78-.59-5.71-.27-8.49-.76a66.29,66.29,0,0,0-7.72-.08l.14.72a151.17,151.17,0,0,0,22.49,15.2,158.31,158.31,0,0,0,18.24,8.52l.1.36a114.47,114.47,0,0,0-19.13,1.28,147.43,147.43,0,0,0-28.26,7.14l.06.38a140.44,140.44,0,0,0,30.57,7.39,88.38,88.38,0,0,0,16.17,1c0,.39-.13.61-.44.64a139.72,139.72,0,0,0-34.09,18.76c-2.22,1.56-4.25,3.33-6.42,4.94l-.19.65c3.69-.07,7.26-.23,10.93-.33a17.33,17.33,0,0,1,3.73-.41,142.12,142.12,0,0,0,32.76-7.38c-.15.69-.72.84-1.2,1.3a137.14,137.14,0,0,0-29.66,36.3,140.76,140.76,0,0,0,42.17-24,3,3,0,0,1-.38.94A143,143,0,0,0,200,496.87l.2.58c1-.25,1.65-1.12,2.45-1.77a139.89,139.89,0,0,0,25.56-29.52c1.13-1.62,2-3.45,3.2-5a143.31,143.31,0,0,0,.28,48.1,1.43,1.43,0,0,0,.77-.76,138.8,138.8,0,0,0,15.74-41.74c.24-.69.12-1.76.76-2.21A136.44,136.44,0,0,0,264.67,508c.44.63.28,1.37,1.26,1.17a143.24,143.24,0,0,0,.9-42.36,33.91,33.91,0,0,1-.52-5.12,137.37,137.37,0,0,0,31.37,36.63A140.89,140.89,0,0,0,282,453.78a3.44,3.44,0,0,1-.33-1.09,139.93,139.93,0,0,0,37.35,22,32.82,32.82,0,0,0,4.49,1.59,4.73,4.73,0,0,0-.84-1.87,141.26,141.26,0,0,0-29.49-35l-.12-.32.88.16a140.87,140.87,0,0,0,47,7.88,141.06,141.06,0,0,0-41.47-24.54l-.13-.42a54.58,54.58,0,0,0,9.56-.42,120.74,120.74,0,0,0,20.9-3.09,155.11,155.11,0,0,0,16.36-4.86l0-.42A136.15,136.15,0,0,0,316.15,406c-5.66-.7-11.32-1-17-1.27a140.34,140.34,0,0,0,39.77-23c.61-.58,1.4-.74,1.54-1.61a140.89,140.89,0,0,0-36.83,4.75,86,86,0,0,0-10.6,3.4l.19-.57a138.09,138.09,0,0,0,28.88-34.11,11.51,11.51,0,0,0,1.36-2.57,5.69,5.69,0,0,0-1.36.23,141.93,141.93,0,0,0-40.5,23.41l.25-.65a140.16,140.16,0,0,0,15.93-45,139.25,139.25,0,0,0-30,34.38,16.17,16.17,0,0,1-1.49,2.33c0-3.71,1.22-7.58,1.22-11.33a149.79,149.79,0,0,0-1.67-36.69c-.72,0-.71.74-1.08,1.23A139.24,139.24,0,0,0,249.47,360c-.14.8,0,1.51-.59,2.16a139.41,139.41,0,0,0-16.53-44.74l-.06-.59c1-2.45,1-5.23,1.77-7.77a170.61,170.61,0,0,1,10.71-31.23,76.79,76.79,0,0,1,4.37-8.87Z"/><path id="Path_358" data-name="Path 358" class="cls-1" d="M446.11,285.68a4.88,4.88,0,0,0,1.7.18c7,.17,13.17,1,19.58,1.5.14,1-.87,2.17-1.17,3.18a296,296,0,0,1-31.51,54.18c-.44.66-1,1.07-1.14,1.89A271.54,271.54,0,0,1,496,368.85c.85.28,1.68.71.92,1.68a275.76,275.76,0,0,1-51.25,42.94,1.46,1.46,0,0,0,.77.81A265,265,0,0,1,496.61,456c.42.52,1.1.7,1,1.47a299.36,299.36,0,0,1-63.72,23.34l-.09.65a157.62,157.62,0,0,1,9.35,12.77,281,281,0,0,1,24.55,45.33l-.35.55c-1.56.09-3.11.33-4.69.35-2.2.61-4.63.29-6.89.75a277.84,277.84,0,0,1-56.2-1.17,275.6,275.6,0,0,1,11.84,65.23,2.05,2.05,0,0,1,.09,1.61c-3.06-.35-6-1.49-9-2.1-8.09-2.26-16-4.62-23.89-7.51a278.13,278.13,0,0,1-31-13.39l-.3.27c-.17,4.21-.6,8.4-.91,12.61-.56,2.2-.23,4.56-.81,6.78a277.94,277.94,0,0,1-7.6,39.07c-.89,2.67-1.38,5.67-2.52,8.2a206,206,0,0,1-17.85-12.35,264.36,264.36,0,0,1-34.41-31.2l-.52.61a274.65,274.65,0,0,1-32.42,56.86c-.41.52-.71,1.41-1.53,1.2a278,278,0,0,1-33.24-57.13,6,6,0,0,0-.83-1.64A277.6,277.6,0,0,1,164,650.06c-.92.76-1.86,1.05-1.93-.51a274.85,274.85,0,0,1-11.4-65.82,231.57,231.57,0,0,0,47.9-32.92c1.21,5.53,1.75,11.23,3.15,16.73a222.51,222.51,0,0,0,12.42,39.37c.68.05,1.08-.7,1.52-1.11a237.17,237.17,0,0,0,32.44-45.9c.37,0,.67.25.88.78a216.55,216.55,0,0,0,33.25,46.2l.42,0a175.17,175.17,0,0,0,7.06-19.12,227.17,227.17,0,0,0,8-33.66c.18-.92.07-2.58.72-3.28a218.63,218.63,0,0,0,46.44,32,6.14,6.14,0,0,0,1.9.8,237.61,237.61,0,0,0-1-37c-.71-3.2-.86-6.35-1.42-9.55-.43-3.84-1.59-7.57-2-11.41a5.66,5.66,0,0,1,2.17.59,219.5,219.5,0,0,0,48.26,12.75c2.09.12,4,.82,6.13.77a32.44,32.44,0,0,0-1.41-4.49,228.67,228.67,0,0,0-22.84-48.54,24,24,0,0,1,5.62-.13c4.73-.07,9.46-.25,14.19-.39,2.51.1,4.88-.57,7.39-.57a247.28,247.28,0,0,0,31.2-4.94l.2-.42a224.17,224.17,0,0,0-36.88-38.21,41.17,41.17,0,0,1-3.8-3.17,10.08,10.08,0,0,1,3-1.19,232.2,232.2,0,0,0,49.29-23.93.85.85,0,0,0-.58-.92,230.57,230.57,0,0,0-49.58-23.6,6.79,6.79,0,0,1-2.25-.91c4.29-3.55,8.66-7,12.75-10.8A243.27,243.27,0,0,0,433.19,347l-.18-.46a227.27,227.27,0,0,0-27.68-4.71,235,235,0,0,0-29.07-.79l-.69-.14-.08-.67a218.45,218.45,0,0,0,23.68-52.42,267.84,267.84,0,0,1,46.94-2.12Z"/><path id="Path_359" data-name="Path 359" class="cls-4" d="M232.25,317h.26l.06.6a139.32,139.32,0,0,1,16.53,44.74c.58-.65.46-1.36.59-2.17A139.22,139.22,0,0,1,265,319c.37-.5.36-1.25,1.08-1.24a150.86,150.86,0,0,1,1.67,36.7c0,3.75-1.17,7.62-1.23,11.32a15.32,15.32,0,0,0,1.5-2.32,139.25,139.25,0,0,1,30-34.38,140.16,140.16,0,0,1-15.93,45l-.25.64a141.61,141.61,0,0,1,40.49-23.4,5.31,5.31,0,0,1,1.36-.23,11.19,11.19,0,0,1-1.35,2.56,138.17,138.17,0,0,1-28.88,34.12l-.19.56a86,86,0,0,1,10.6-3.39,140.38,140.38,0,0,1,36.82-4.74c-.15.86-.92,1-1.54,1.61a140.77,140.77,0,0,1-39.78,23c5.69.28,11.35.58,17,1.26a135.7,135.7,0,0,1,29.95,7.46l0,.42A154.24,154.24,0,0,1,330,418.81a121,121,0,0,1-20.91,3.09,56.54,56.54,0,0,1-9.56.42l.14.42a141,141,0,0,1,41.46,24.54,141.16,141.16,0,0,1-47-7.88l-.87-.16.12.32a141.44,141.44,0,0,1,29.48,35,4.61,4.61,0,0,1,.85,1.87,32.82,32.82,0,0,1-4.49-1.59,140,140,0,0,1-37.36-22,3.58,3.58,0,0,0,.33,1.1,140.61,140.61,0,0,1,15.73,44.52,137.4,137.4,0,0,1-31.37-36.63,35.39,35.39,0,0,0,.52,5.13,143.24,143.24,0,0,1-.9,42.36c-1,.2-.82-.54-1.26-1.17a136.18,136.18,0,0,1-15.73-43.46c-.64.46-.52,1.52-.77,2.21a138.53,138.53,0,0,1-15.74,41.74,1.38,1.38,0,0,1-.77.75,143.77,143.77,0,0,1-.28-48.09c-1.17,1.59-2.07,3.41-3.19,5a140.19,140.19,0,0,1-25.55,29.53c-.8.65-1.43,1.52-2.45,1.77l-.2-.59a142.76,142.76,0,0,1,15.69-43.79,3.5,3.5,0,0,0,.38-.94,140.71,140.71,0,0,1-42.18,24A137.14,137.14,0,0,1,203.75,440c.49-.46,1.05-.61,1.2-1.3a141.49,141.49,0,0,1-32.76,7.38,18.06,18.06,0,0,0-3.73.41c-3.67.11-7.25.27-10.92.33l.18-.66c2.18-1.61,4.21-3.38,6.42-4.94a140.24,140.24,0,0,1,34.09-18.76c.32,0,.46-.25.44-.64a88.22,88.22,0,0,1-16.16-1,140.28,140.28,0,0,1-30.57-7.38l-.06-.39a147.88,147.88,0,0,1,28.25-7.14,115.06,115.06,0,0,1,19.09-1.28l-.1-.36a158.31,158.31,0,0,1-18.24-8.52,151.17,151.17,0,0,1-22.49-15.2l-.14-.72a66.29,66.29,0,0,1,7.72.08c2.78.49,5.71.17,8.49.76a145.77,145.77,0,0,1,31.07,7.14,140.86,140.86,0,0,1-31-37.27,10.37,10.37,0,0,1,3.34,1,140.72,140.72,0,0,1,38.48,22.6,5.23,5.23,0,0,0-.75-1.81,136.11,136.11,0,0,1-14.58-40,10.76,10.76,0,0,1-.48-3.38c.77.14,1.38.94,2,1.43a140.89,140.89,0,0,1,28.48,34,2.24,2.24,0,0,0,.67.83c-.09-2.46-.69-4.91-.88-7.38-.62-3.17-.31-6.47-.81-9.63A143.12,143.12,0,0,1,232.25,317Z"/><path id="Path_360" data-name="Path 360" class="cls-1" d="M154.74,525.38c0,2.64-1.14,5.16-1.38,7.81A232.23,232.23,0,0,0,150.17,584a272,272,0,0,1-59.93,22.22c-1.12.16-2.53.92-3.67.64a26.81,26.81,0,0,1,.39-4.38c.16-6.62,1.2-13.77,2-20.36a250.94,250.94,0,0,1,9.55-41.94A218.72,218.72,0,0,0,154.74,525.38Z"/></g></g></g></g></svg>