<svg xmlns="http://www.w3.org/2000/svg" viewBox="0 0 498.82 876.67"><defs><style>.cls-1{fill:#1d9f9e;}</style></defs><g id="Layer_2" data-name="Layer 2"><g id="Layer_1-2" data-name="Layer 1"><g id="EE"><g id="EE-2" data-name="EE"><g id="layer1"><path id="path2998" class="cls-1" d="M249.85,0C109.11,0,0,114.37,0,248.1,0,366.58,77.34,430.39,77.34,430.39c7.65,6.74,5.72,10.24.27,15.75,0,0-77.61,70.61-77.61,179.8C0,775.61,119.73,876.67,249.85,876.67c145.49,0,249-118.32,249-249,0-112.47-74.51-178.84-74.51-178.84-10.51-10.11-10.49-11.8,0-21,0,0,74.51-62.63,74.51-179.72A248.21,248.21,0,0,0,249.85,0ZM195.12,128.53a20.22,20.22,0,0,1,16.94,9.21,20.25,20.25,0,0,1,35.37,2.58,20.24,20.24,0,0,1,36.77,0,20.26,20.26,0,0,1,38.65,8.53h0a20.26,20.26,0,0,1-38.65,8.58,20.25,20.25,0,0,1-36.77,0A20.25,20.25,0,0,1,212.06,160a20.22,20.22,0,0,1-5.44,5.62,20.34,20.34,0,0,1,.12,33.39,20.36,20.36,0,0,1,0,33.33,20.46,20.46,0,0,1,4.23,4,20.22,20.22,0,0,1,33.3,2.33,20.24,20.24,0,0,1,34.79-.22A20.27,20.27,0,0,1,316.67,249h0a20.27,20.27,0,0,1-37.61,10.55,20.24,20.24,0,0,1-34.79-.22,20.22,20.22,0,0,1-33.3,2.33,20.49,20.49,0,0,1-4.36,4.06,20.34,20.34,0,0,1,0,33.47,20.31,20.31,0,0,1,0,33.44,20.41,20.41,0,0,1,5.42,5.54,20.23,20.23,0,0,1,35.39,2.52,20.23,20.23,0,0,1,36.76,0,20.29,20.29,0,1,1,18.42,28.89h0a20.27,20.27,0,0,1-18.4-11.76,20.23,20.23,0,0,1-36.76,0,20.22,20.22,0,0,1-35.31,2.63,20.25,20.25,0,0,1-37.26-11v0a20.29,20.29,0,0,1,8.78-16.72,20.31,20.31,0,0,1,0-33.44,20.34,20.34,0,0,1,0-33.47,20.34,20.34,0,0,1-.11-33.39,20.35,20.35,0,0,1,0-33.33,20.34,20.34,0,0,1,.11-33.39,20.33,20.33,0,0,1,11.46-37.06h0Zm-1.45,378a20.49,20.49,0,0,1,17.15,9.29,20.5,20.5,0,0,1,35.77,2.6,20.49,20.49,0,0,1,37.18,0,20.5,20.5,0,1,1,18.62,29.14h0a20.53,20.53,0,0,1-18.61-11.86,20.49,20.49,0,0,1-37.18,0,20.5,20.5,0,0,1-35.77,2.6,20.69,20.69,0,0,1-5.48,5.67,20.48,20.48,0,0,1,.06,33.67,20.47,20.47,0,0,1,0,33.62,21,21,0,0,1,4.31,4.06,20.46,20.46,0,0,1,33.67,2.36,20.5,20.5,0,0,1,35.19-.23,20.51,20.51,0,1,1,17.53,31.13h0a20.51,20.51,0,0,1-17.53-9.87,20.5,20.5,0,0,1-35.19-.22,20.47,20.47,0,0,1-33.67,2.35,20.78,20.78,0,0,1-4.41,4.12,20.49,20.49,0,0,1,0,33.73,20.48,20.48,0,0,1,0,33.72,20.6,20.6,0,0,1,5.48,5.61,20.49,20.49,0,0,1,35.79,2.55,20.49,20.49,0,0,1,37.18,0,20.51,20.51,0,0,1,39.1,8.62h0a20.5,20.5,0,0,1-39.1,8.65,20.48,20.48,0,0,1-37.18,0,20.48,20.48,0,0,1-35.71,2.66,20.5,20.5,0,1,1-28.81-28,20.47,20.47,0,0,1,0-33.73,20.46,20.46,0,0,1,0-33.72,20.48,20.48,0,0,1-.08-33.7,20.46,20.46,0,0,1,0-33.62A20.47,20.47,0,0,1,182,543.9a20.51,20.51,0,0,1,11.65-37.38Z"/></g></g></g></g></g></svg>