<svg xmlns="http://www.w3.org/2000/svg" viewBox="0 0 498.38 65.18"><defs><style>.cls-1{fill:#ff141d;}</style></defs><g id="Layer_2" data-name="Layer 2"><g id="Layer_1-2" data-name="Layer 1"><g id="Oracle"><g id="Oracle-2" data-name="Oracle"><g id="Group_133" data-name="Group 133"><path id="Path_294" data-name="Path 294" class="cls-1" d="M231.42.08a8.93,8.93,0,0,1,6.41,4q19.46,30.32,38.91,60.66H262.16q-3.41-5.66-6.84-11.28-16.68,0-33.33,0-3.66-5.64-7.28-11.3c11,0,21.94,0,32.9,0-5.77-9.34-11.62-18.64-17.39-28q-16,25.29-31.95,50.58H183.7q19.4-30.29,38.76-60.58a9.24,9.24,0,0,1,9-4Z"/><path id="Path_295" data-name="Path 295" class="cls-1" d="M108.41,1.09h52.76a21.17,21.17,0,0,1,15.88,7.45,21.07,21.07,0,0,1-11.72,34.24c-3.14.7-6.61.36-9.86.45q12,10.1,24.1,20.19H162.11L126.29,32.23l33.82.05a10.1,10.1,0,0,0,2.54-19.87,18.27,18.27,0,0,0-4.73-.32h-37.1q0,26.51,0,53H108.42v-64Z"/><path id="Path_296" data-name="Path 296" class="cls-1" d="M299.42,1.31a55.56,55.56,0,0,1,6.7-.22h41.34c-2.38,3.78-4.82,7.52-7.2,11.29-12.25,0-24.51,0-36.76,0a20.74,20.74,0,0,0,.39,41.47h44.59c-2.41,3.77-4.85,7.52-7.26,11.29q-18.86,0-37.7,0a32,32,0,0,1-4.1-63.87Z"/><path id="Path_297" data-name="Path 297" class="cls-1" d="M353.42.62c4.13,0,8.25,0,12.38,0q0,26.39,0,52.78c19.16,0,38.33,0,57.5,0l-7.25,11.28q-28.14,0-56.29,0A6.31,6.31,0,0,1,355,62.56a6.52,6.52,0,0,1-1.54-4.45V.62Z"/><path id="Path_298" data-name="Path 298" class="cls-1" d="M453.28,1.09H497.4c-2.41,3.77-4.88,7.51-7.28,11.29H454a20.82,20.82,0,0,0-20.07,15c20,0,40,0,59.95,0q-3.62,5.64-7.25,11.28-26.34,0-52.69,0A20.71,20.71,0,0,0,454,53.8h44.34c-2.43,3.75-4.84,7.52-7.27,11.28H452.76a32.5,32.5,0,1,1,.56-65h0Z"/><path id="Path_299" data-name="Path 299" class="cls-1" d="M101.46,31.29A32.1,32.1,0,0,0,70,.62q-19,0-37.95,0A32,32,0,0,0,31.3,64.7c12,0,24.07,0,36.11,0A33.37,33.37,0,0,0,83.7,61.37a32.08,32.08,0,0,0,17.76-30.08Zm-13.68,8A20.55,20.55,0,0,1,68.31,53.09H33a20.5,20.5,0,0,1-7.95-39.35A22.77,22.77,0,0,1,35.2,12.09H68.31A20.52,20.52,0,0,1,87.77,39.28Z"/></g></g></g></g></g></svg>